<?xml version="1.0" encoding="utf-8"?>
<!-- Generator: Adobe Illustrator 19.0.0, SVG Export Plug-In . SVG Version: 6.00 Build 0)  -->
<svg version="1.1" id="Layer_1" xmlns="http://www.w3.org/2000/svg" xmlns:xlink="http://www.w3.org/1999/xlink" x="0px" y="0px"
	 viewBox="0 0 1280 800" enable-background="new 0 0 1280 800" xml:space="preserve">
<g id="XMLID_1_">
	<rect id="Red_Square" x="10.5" y="81" fill="#D73332" width="297.7" height="297.7"/>
	<g id="Mozilla">
		<rect id="XMLID_29_" x="335.5" y="510.5" width="732.4" height="209.4"/>
		<path id="XMLID_31_" fill="#FFFFFF" d="M1035,660.8c-1.4,0.4-2.6,0.6-3.8,0.6c-4.3,0-6.3-1.8-6.3-7.1v-39.8
			c0-20.9-16.7-31.1-36.4-31.1c-15,0-23.1,1.8-39.2,8.3l-3.6,21.1l20.9,2.2l3-10.3c4.3-2.2,8.5-2.6,14-2.6c14.8,0,15,11.2,15,20.5v3
			c-4.7-0.6-10-0.8-15-0.8c-20.9,0-42.7,5.3-42.7,27.8c0,19.1,15,26.2,28.2,26.2c14.8,0,24.2-8.9,29.4-18.3
			c1.2,11.2,7.9,18.3,20.1,18.3c5.7,0,11.6-1.6,16.4-4.3L1035,660.8z M978.8,660.2c-7.9,0-10.8-4.7-10.8-10.6
			c0-10,8.1-12.6,17.5-12.6c4.2,0,8.9,0.6,13.2,1.2C998,653.5,988.1,660.2,978.8,660.2z M943.6,537.1l-39.6,139.8h-25.8l39.6-139.8
			H943.6z M890.4,537.1l-39.6,139.8H825l39.6-139.8H890.4L890.4,537.1z M780.4,585.2h27.4v32.9h-27.4V585.2z M780.4,643.9h27.4v32.9
			h-27.4V643.9z M740.4,642.7l20.7,2l-5.7,32.1h-80l-2.6-13.8l50.4-57.9h-28.6l-4.1,14.2l-18.9-2.1l3.3-32.1h80.4l2.1,13.8
			l-50.8,57.9h29.7L740.4,642.7z M609.2,583.4c-32.9,0-49.2,22.2-49.2,49c0,29.3,19.5,46.5,47.7,46.5c29.3,0,50.4-18.5,50.4-47.7
			C658.1,605.5,642.1,583.4,609.2,583.4z M608.5,658.8c-14.2,0-21.5-12.2-21.5-28c0-17.3,8.3-27.2,21.8-27.2
			c12.4,0,22.3,8.3,22.3,26.8C631.1,647.8,622.2,658.8,608.5,658.8z M536.4,656.9h12.2v19.9h-38.4v-51.6c0-15.9-5.3-21.9-15.6-21.9
			c-12.6,0-17.7,8.9-17.7,21.8v31.9h12.2v19.9h-38.4v-51.6c0-15.9-5.3-21.9-15.6-21.9c-12.6,0-17.7,8.9-17.7,21.8v31.9h17.5v19.9
			H379v-19.9h12.2v-51.8H379v-19.9h38.4V599c5.5-9.7,15-15.6,27.8-15.6c13.2,0,25.4,6.3,29.9,19.7c5.1-12.2,15.5-19.7,29.9-19.7
			c16.4,0,31.5,10,31.5,31.7L536.4,656.9L536.4,656.9z"/>
	</g>
	<g id="XMLID_2_">
		<path id="XMLID_3_" d="M601.6,379.9h-69.9l-61.6-118.1h-49.2v74.5h34.9v43.7H335.5v-43.7h34.5V124.8h-34.5V81.1h132.8
			c37.1,0,64.8,7.7,83.2,23.2c18.4,15.5,27.6,37.2,27.6,65c0,19.9-5.3,37-15.9,51.2c-10.6,14.2-25.2,24.4-43.9,30.6l45.5,85h36.8
			V379.9z M524.8,170.8c0-16.8-4.9-28.7-14.7-35.6c-9.8-6.9-26.5-10.3-50.1-10.3h-39.1v96.1h38.6c24.5,0,41.5-4.4,51-13.1
			C520.1,199,524.8,186.7,524.8,170.8z"/>
		<path id="XMLID_6_" d="M810.3,316.9c-1.8,18.1-10.7,33.9-26.7,47.3c-15.9,13.5-37.8,20.2-65.7,20.2c-30,0-54.7-8.8-74-26.4
			c-19.3-17.6-29-43.6-29-77.9c0-31.6,8.8-57.9,26.4-79.1c17.6-21.1,42.2-31.7,73.8-31.7c28.5,0,51.1,8.5,67.8,25.5
			c16.7,17,25.2,38.5,25.5,64.6c0,8.6-0.9,17.8-2.8,27.6H666.4c2.8,38.6,21.1,57.9,55.2,57.9c15.9,0,27.3-3.8,34.2-11.5
			c6.9-7.7,11.4-15.8,13.6-24.4L810.3,316.9z M757.9,256.7c1.2-12.3-1.6-23.8-8.5-34.7c-6.9-10.9-18.5-16.3-34.7-16.3
			c-14.7,0-25.9,4.9-33.6,14.7c-7.7,9.8-12.4,21.9-14.2,36.3H757.9z"/>
		<path id="XMLID_9_" d="M1068.1,271.4c0,29.4-7.7,55.6-23.2,78.6c-15.5,23-39.3,34.5-71.5,34.5c-29.7,0-51.3-10.7-64.8-32.2v86.9
			h40.9v38.6H828.6v-38.6h30.8v-228h-32.2v-37.7h81.4v40.9c5.8-12.3,14.3-22.8,25.5-31.7c11.2-8.9,26.3-13.3,45.3-13.3
			c26.4,0,47.7,9,64.1,26.9C1059.9,214.2,1068.1,239.3,1068.1,271.4z M1017.1,276.5c0-22.1-5.1-38.8-15.2-50.3
			c-10.1-11.5-23-17.2-38.6-17.2c-16.5,0-29.6,6.3-39.1,18.8c-9.5,12.6-14.6,27.3-15.2,44.1l-0.5,16.1c0,17.2,5,31,14.9,41.4
			c10,10.4,22.8,15.6,38.4,15.6c17.5,0,31-6.1,40.7-18.4C1012.3,314.3,1017.1,297.6,1017.1,276.5z"/>
		<path id="XMLID_12_" d="M1274.5,318.3c0,21.5-8.8,37.8-26.4,49.2c-17.6,11.3-40.1,17-67.3,17c-14.7,0-29.5-1.7-44.4-5.1
			c-14.9-3.4-28.3-8.4-40.2-15.2l7.4-53.3l38.6,3.7l-0.5,26.7c5.8,2.5,12,4.1,18.6,5.1c6.6,0.9,12.5,1.4,17.7,1.4
			c12.6,0,23.5-2.2,32.9-6.7c9.3-4.4,14-11.1,14-20c0-8.6-4.2-14.7-12.6-18.4c-8.4-3.7-18.9-6.5-31.5-8.5c-12.6-2-25.1-4.7-37.7-8.3
			c-12.6-3.5-23.1-9.3-31.5-17.5c-8.4-8.1-12.6-20.3-12.6-36.5c0-23.9,9.1-40.3,27.3-49.2c18.2-8.9,37.5-13.3,57.7-13.3
			c26.7,0,51.8,6.3,75.4,18.8l5.1,51l-38.6,4.6l-4.1-30.8c-12-4.6-24.1-6.9-36.3-6.9c-9.5,0-17.5,1.9-24.1,5.7
			c-6.6,3.8-9.9,9.9-9.9,18.2c0,8.6,4.1,14.6,12.4,17.9c8.3,3.4,18.5,6.1,30.8,8c12.3,2,24.5,4.8,36.8,8.3
			c12.3,3.5,22.5,9.4,30.8,17.5C1270.3,289.9,1274.5,302.1,1274.5,318.3z"/>
	</g>
</g>
<g id="Motiv_2_">
	<g id="XMLID_63_">
		<path id="XMLID_66_" fill="#FFFFFF" d="M176.5,245.3v63c0,2.1-1.6,3.8-3.7,3.8h-21.6c-2,0-3.7-1.7-3.7-3.8v-63H176.5z"/>
		<path id="XMLID_65_" fill="#FFFFFF" d="M189.3,245.5h-56.2c-2,0-3.6-1.6-3.6-3.6v-48.5c0-2,1.6-3.6,3.6-3.6h56.2
			c2,0,3.6,1.6,3.6,3.6v48.5C192.9,243.9,191.3,245.5,189.3,245.5z"/>
		<circle id="XMLID_64_" fill="#FFFFFF" cx="161.5" cy="169.7" r="15.2"/>
	</g>
	<g id="XMLID_59_">
		<path id="XMLID_62_" fill="#FFFFFF" d="M242.2,240.9V294c0,1.8-1.4,3.2-3.1,3.2H221c-1.7,0-3.1-1.4-3.1-3.2v-53.2H242.2z"/>
		<path id="XMLID_61_" fill="#FFFFFF" d="M252.5,241h-46.3c-2,0-3.6-1.6-3.6-3.6v-39.8c0-2,1.6-3.6,3.6-3.6h46.3
			c2,0,3.6,1.6,3.6,3.6v39.8C256.1,239.4,254.5,241,252.5,241z"/>
		<circle id="XMLID_60_" fill="#FFFFFF" cx="229.7" cy="177" r="12.8"/>
	</g>
	<g id="XMLID_55_">
		<path id="XMLID_58_" fill="#FFFFFF" d="M106.1,241.3v52.8c0,1.8-1.4,3.2-3.1,3.2H85c-1.7,0-3.1-1.4-3.1-3.2v-52.8H106.1z"/>
		<path id="XMLID_57_" fill="#FFFFFF" d="M116.3,241.4H70.4c-2,0-3.6-1.6-3.6-3.6v-39.5c0-2,1.6-3.6,3.6-3.6h45.9
			c2,0,3.6,1.6,3.6,3.6v39.5C119.8,239.8,118.2,241.4,116.3,241.4z"/>
		<circle id="XMLID_56_" fill="#FFFFFF" cx="93.7" cy="177.9" r="12.7"/>
	</g>
</g>
</svg>
