<?xml version="1.0" encoding="UTF-8" standalone="no"?>
<!DOCTYPE svg PUBLIC "-//W3C//DTD SVG 1.1//EN" "http://www.w3.org/Graphics/SVG/1.1/DTD/svg11.dtd">
<svg version="1.1" xmlns="http://www.w3.org/2000/svg" xmlns:xlink="http://www.w3.org/1999/xlink" preserveAspectRatio="xMidYMid meet"
  viewBox="0 0 640 640" width="640" height="640">
  <defs>
    <path d="M640 0C640 0 640 0 640 0C640 384 640 597.33 640 640C640 640 640 640 640 640C256 640 42.67 640 0 640C0 640 0 640 0 640C0 256 0 42.67 0 0C0 0 0 0 0 0C384 0 597.33 0 640 0Z"
      id="d6a7QgeZFw"></path>
    <path d="M356.87 488.65C356.87 493.17 353.43 496.82 348.92 496.82C344.27 496.82 307.12 496.82 302.48 496.82C298.18 496.82 294.52 493.17 294.52 488.65C294.52 479.62 294.52 434.48 294.52 353.21L356.87 353.21C356.87 434.48 356.87 479.62 356.87 488.65Z"
      id="c20LHxeABO"></path>
    <path d="M263.57 353.64C259.27 353.64 255.83 350.2 255.83 345.91C255.83 335.48 255.83 252.07 255.83 241.64C255.83 237.34 259.27 233.9 263.57 233.9C275.65 233.9 372.31 233.9 384.39 233.9C388.69 233.9 392.13 237.34 392.13 241.64C392.13 252.07 392.13 335.48 392.13 345.91C392.13 350.2 388.69 353.64 384.39 353.64C360.22 353.64 275.65 353.64 263.57 353.64Z"
      id="iLmb6RSzK"></path>
    <path d="M324.62 158.01C306.57 158.01 291.94 172.64 291.94 190.69C291.94 208.74 306.57 223.37 324.62 223.37C342.67 223.37 357.3 208.74 357.3 190.69C357.3 172.64 342.67 158.01 324.62 158.01Z"
      id="i3nGKABtec"></path>
    <path d="M498.11 343.76C498.11 412.25 498.11 450.3 498.11 457.91C498.11 461.78 495.1 464.79 491.45 464.79C487.56 464.79 456.43 464.79 452.54 464.79C448.88 464.79 445.87 461.78 445.87 457.91C445.87 450.29 445.87 412.16 445.87 343.54L498.11 343.54L498.11 343.76Z"
      id="e3efLuMREB"></path>
    <path d="M420.72 343.97C416.42 343.97 412.98 340.53 412.98 336.23C412.98 327.67 412.98 259.22 412.98 250.67C412.98 246.37 416.42 242.93 420.72 242.93C430.67 242.93 510.3 242.93 520.26 242.93C524.55 242.93 527.99 246.37 527.99 250.67C527.99 259.22 527.99 327.67 527.99 336.23C527.99 340.53 524.55 343.97 520.26 343.97C500.35 343.97 430.67 343.97 420.72 343.97Z"
      id="cRJ9in5U"></path>
    <path d="M471.24 178.86C456.04 178.86 443.72 191.18 443.72 206.38C443.72 221.58 456.04 233.9 471.24 233.9C486.44 233.9 498.76 221.58 498.76 206.38C498.76 191.18 486.44 178.86 471.24 178.86Z"
      id="c16AiH2pQ3"></path>
    <path d="M205.52 457.13C205.52 461 202.51 464.01 198.86 464.01C194.99 464.01 164.03 464.01 160.16 464.01C156.51 464.01 153.5 461 153.5 457.13C153.5 449.56 153.5 411.72 153.5 343.62L205.52 343.62C205.52 411.72 205.52 449.56 205.52 457.13Z"
      id="b2LxQNQvbE"></path>
    <path d="M128.77 344.83C124.47 344.83 121.03 341.39 121.03 337.09C121.03 328.6 121.03 260.67 121.03 252.17C121.03 247.87 124.47 244.43 128.77 244.43C138.64 244.43 217.58 244.43 227.45 244.43C231.75 244.43 235.19 247.87 235.19 252.17C235.19 260.67 235.19 328.6 235.19 337.09C234.97 341.39 231.54 344.83 227.45 344.83C207.72 344.83 138.64 344.83 128.77 344.83Z"
      id="acXhlpY4E"></path>
    <path d="M178.86 181.01C163.79 181.01 151.56 193.24 151.56 208.32C151.56 223.4 163.79 235.62 178.86 235.62C193.94 235.62 206.17 223.4 206.17 208.32C206.17 193.24 193.94 181.01 178.86 181.01Z"
      id="a16QoCEaS"></path>
  </defs>
  <g>
    <g>
      <g>
        <use xlink:href="#d6a7QgeZFw" opacity="1" fill="#d73332" fill-opacity="1"></use>
        <g>
          <use xlink:href="#d6a7QgeZFw" opacity="1" fill-opacity="0" stroke="#000000" stroke-width="1" stroke-opacity="0"></use>
        </g>
      </g>
      <g>
        <use xlink:href="#c20LHxeABO" opacity="1" fill="#ffffff" fill-opacity="1"></use>
        <g>
          <use xlink:href="#c20LHxeABO" opacity="1" fill-opacity="0" stroke="#000000" stroke-width="1" stroke-opacity="0"></use>
        </g>
      </g>
      <g>
        <use xlink:href="#iLmb6RSzK" opacity="1" fill="#ffffff" fill-opacity="1"></use>
        <g>
          <use xlink:href="#iLmb6RSzK" opacity="1" fill-opacity="0" stroke="#000000" stroke-width="1" stroke-opacity="0"></use>
        </g>
      </g>
      <g>
        <use xlink:href="#i3nGKABtec" opacity="1" fill="#ffffff" fill-opacity="1"></use>
        <g>
          <use xlink:href="#i3nGKABtec" opacity="1" fill-opacity="0" stroke="#000000" stroke-width="1" stroke-opacity="0"></use>
        </g>
      </g>
      <g>
        <use xlink:href="#e3efLuMREB" opacity="1" fill="#ffffff" fill-opacity="1"></use>
        <g>
          <use xlink:href="#e3efLuMREB" opacity="1" fill-opacity="0" stroke="#000000" stroke-width="1" stroke-opacity="0"></use>
        </g>
      </g>
      <g>
        <use xlink:href="#cRJ9in5U" opacity="1" fill="#ffffff" fill-opacity="1"></use>
        <g>
          <use xlink:href="#cRJ9in5U" opacity="1" fill-opacity="0" stroke="#000000" stroke-width="1" stroke-opacity="0"></use>
        </g>
      </g>
      <g>
        <use xlink:href="#c16AiH2pQ3" opacity="1" fill="#ffffff" fill-opacity="1"></use>
        <g>
          <use xlink:href="#c16AiH2pQ3" opacity="1" fill-opacity="0" stroke="#000000" stroke-width="1" stroke-opacity="0"></use>
        </g>
      </g>
      <g>
        <use xlink:href="#b2LxQNQvbE" opacity="1" fill="#ffffff" fill-opacity="1"></use>
        <g>
          <use xlink:href="#b2LxQNQvbE" opacity="1" fill-opacity="0" stroke="#000000" stroke-width="1" stroke-opacity="0"></use>
        </g>
      </g>
      <g>
        <use xlink:href="#acXhlpY4E" opacity="1" fill="#ffffff" fill-opacity="1"></use>
        <g>
          <use xlink:href="#acXhlpY4E" opacity="1" fill-opacity="0" stroke="#000000" stroke-width="1" stroke-opacity="0"></use>
        </g>
      </g>
      <g>
        <use xlink:href="#a16QoCEaS" opacity="1" fill="#ffffff" fill-opacity="1"></use>
        <g>
          <use xlink:href="#a16QoCEaS" opacity="1" fill-opacity="0" stroke="#000000" stroke-width="1" stroke-opacity="0"></use>
        </g>
      </g>
    </g>
  </g>
</svg>